HIERARCHY
ROOT hip
{
	OFFSET 0.000000 0.000000 0.000000
	CHANNELS 6 Xposition Yposition Zposition Zrotation Yrotation Xrotation 
	JOINT lhipjoint
	{
		OFFSET 0.000000 0.000000 0.000000
		CHANNELS 3 Zrotation Yrotation Xrotation
		JOINT lfemur
		{
			OFFSET 1.363060 -1.794630 0.839290
			CHANNELS 3 Zrotation Yrotation Xrotation
			JOINT ltibia
			{
				OFFSET 2.448110 -6.726130 0.000000
				CHANNELS 3 Zrotation Yrotation Xrotation
				JOINT lfoot
				{
					OFFSET 2.562200 -7.039590 0.000000
					CHANNELS 3 Zrotation Yrotation Xrotation
					JOINT ltoes
					{
						OFFSET 0.157640 -0.433110 2.322550
						CHANNELS 3 Zrotation Yrotation Xrotation
						End Site
						{
							OFFSET 0.000000 0.000000 0.000000
						}
					}
				}
			}
		}
	}
	JOINT rhipjoint
	{
		OFFSET 0.000000 0.000000 0.000000
		CHANNELS 3 Zrotation Yrotation Xrotation
		JOINT rfemur
		{
			OFFSET -1.305520 -1.794630 0.839290
			CHANNELS 3 Zrotation Yrotation Xrotation
			JOINT rtibia
			{
				OFFSET -2.542530 -6.985550 0.000000
				CHANNELS 3 Zrotation Yrotation Xrotation
				JOINT rfoot
				{
					OFFSET -2.568260 -7.056230 0.000000
					CHANNELS 3 Zrotation Yrotation Xrotation
					JOINT rtoes
					{
						OFFSET -0.164730 -0.452590 2.363150
						CHANNELS 3 Zrotation Yrotation Xrotation
						End Site
						{
							OFFSET 0.000000 0.000000 0.000000
						}
					}
				}
			}
		}
	}
	JOINT lowerback
	{
		OFFSET 0.000000 0.000000 0.000000
		CHANNELS 3 Zrotation Yrotation Xrotation
		JOINT upperback
		{
			OFFSET 0.028270 2.035590 -0.193380
			CHANNELS 3 Zrotation Yrotation Xrotation
			JOINT thorax
			{
				OFFSET 0.056720 2.048850 -0.042750
				CHANNELS 3 Zrotation Yrotation Xrotation
				JOINT lowerneck
				{
					OFFSET 0.000000 0.000000 0.000000
					CHANNELS 3 Zrotation Yrotation Xrotation
					JOINT upperneck
					{
						OFFSET -0.054170 1.746240 0.172020
						CHANNELS 3 Zrotation Yrotation Xrotation
						JOINT head
						{
							OFFSET 0.104070 1.761360 -0.123970
							CHANNELS 3 Zrotation Yrotation Xrotation
							End Site
							{
								OFFSET 0.000000 0.000000 0.000000
							}
						}
					}
				}
				JOINT lclavicle
				{
					OFFSET 0.000000 0.000000 0.000000
					CHANNELS 3 Zrotation Yrotation Xrotation
					JOINT lhumerus
					{
						OFFSET 3.362410 1.200890 -0.311210
						CHANNELS 3 Zrotation Yrotation Xrotation
						JOINT lradius
						{
							OFFSET 4.983000 -0.000000 -0.000000
							CHANNELS 3 Zrotation Yrotation Xrotation
							JOINT lwrist
							{
								OFFSET 3.483560 -0.000000 -0.000000
								CHANNELS 3 Zrotation Yrotation Xrotation
								JOINT lhand
								{
									OFFSET 0.000000 0.000000 0.000000
									CHANNELS 3 Zrotation Yrotation Xrotation
									JOINT lfingers
									{
										OFFSET 0.715260 -0.000000 -0.000000
										CHANNELS 3 Zrotation Yrotation Xrotation
										End Site
										{
											OFFSET 0.000000 0.000000 0.000000
										}
									}
								}
								JOINT lthumb
								{
									OFFSET 0.000000 0.000000 0.000000
									CHANNELS 3 Zrotation Yrotation Xrotation
									End Site
									{
										OFFSET 0.000000 0.000000 0.000000
									}
								}
							}
						}
					}
				}
				JOINT rclavicle
				{
					OFFSET 0.000000 0.000000 0.000000
					CHANNELS 3 Zrotation Yrotation Xrotation
					JOINT rhumerus
					{
						OFFSET -3.136600 1.374050 -0.404650
						CHANNELS 3 Zrotation Yrotation Xrotation
						JOINT rradius
						{
							OFFSET -5.241900 -0.000000 -0.000000
							CHANNELS 3 Zrotation Yrotation Xrotation
							JOINT rwrist
							{
								OFFSET -3.444170 -0.000000 -0.000000
								CHANNELS 3 Zrotation Yrotation Xrotation
								JOINT rhand
								{
									OFFSET 0.000000 0.000000 0.000000
									CHANNELS 3 Zrotation Yrotation Xrotation
									JOINT rfingers
									{
										OFFSET -0.622530 -0.000000 -0.000000
										CHANNELS 3 Zrotation Yrotation Xrotation
										End Site
										{
											OFFSET 0.000000 0.000000 0.000000
										}
									}
								}
								JOINT rthumb
								{
									OFFSET 0.000000 0.000000 0.000000
									CHANNELS 3 Zrotation Yrotation Xrotation
									End Site
									{
										OFFSET 0.000000 0.000000 0.000000
									}
								}
							}
						}
					}
				}
			}
		}
	}
}
MOTION
Frames: 12
Frame Time: 0.008333
1.530151 19.087735 3.533667 -175.804994 6.951357 -177.557850 8.715019 2.273796 -1.879916 -20.307212 3.223774 -9.225049 2.330743 9.314052 27.498835 0.867803 1.753511 5.451292 0.404000 -4.080500 -11.303300 -13.300220 -4.466685 -2.988038 37.980367 -1.504895 -11.525994 -3.609112 -10.739211 31.979161 -3.734175 13.126666 4.269507 -0.193100 2.829900 -7.805700 2.061308 2.574244 -4.305820 0.458384 2.841137 -1.463559 0.398626 2.027130 13.686030 -0.164272 -1.198704 -15.473181 4.286173 -1.099425 17.104411 -0.160800 0.168200 6.608700 -1.849389 0.379225 2.640723 -62.277948 -3.969580 44.113072 4.712191 -33.181560 -2.026767 0.131567 0.725141 30.790953 11.773388 -8.182391 -1.884300 -7.125000 0.000000 0.000000 -10.679500 20.970900 6.257700 2.653445 1.663932 4.236824 70.341237 1.815117 22.188117 -66.739613 60.378859 -30.397600 0.041701 -3.540252 3.218390 -7.415553 10.367782 -1.858300 7.125000 0.000000 0.000000 13.465700 -16.174000 9.449300 
1.530748 19.088531 3.532672 -175.899867 7.191279 -177.688698 8.717299 2.264877 -1.873412 -20.478856 2.988051 -8.977852 2.371981 9.334061 27.558980 0.637933 2.375890 5.096134 0.435900 -4.236800 -11.743700 -13.306090 -4.457624 -3.019045 37.869910 -1.556481 -11.315946 -3.591443 -10.693390 31.877116 -3.753085 13.304571 4.458593 -0.189400 2.802500 -7.729400 2.448924 2.604267 -4.236712 0.468538 2.834299 -1.461370 0.322097 2.043203 13.605220 -0.183505 -1.173280 -15.244475 4.131754 -0.991136 17.207620 -0.229000 0.219800 6.592900 -1.892705 0.407251 2.656830 -62.075392 -3.887903 44.122770 4.733596 -33.117441 -2.025180 0.111600 0.728972 30.291092 11.491154 -7.724417 -1.745700 -7.125000 0.000000 0.000000 -10.895700 21.445900 6.269600 2.714726 1.648265 4.196743 69.734594 2.487506 22.128717 -70.320639 60.641087 -32.940404 0.075896 -3.542781 2.558110 -7.398512 10.013168 -1.806900 7.125000 0.000000 0.000000 13.497600 -16.518800 9.368800 
1.531544 19.088432 3.533269 -176.007676 7.419931 -177.837478 8.723971 2.252931 -1.868410 -20.672068 2.705339 -8.716927 2.415750 9.359556 27.635658 0.396649 3.026857 4.775648 0.456200 -4.332900 -12.015000 -13.310391 -4.443676 -3.049829 37.748774 -1.540779 -11.069715 -3.575843 -10.649405 31.782063 -3.765125 13.431450 4.638394 -0.178700 2.723200 -7.509000 2.869434 2.664562 -4.134890 0.470781 2.871540 -1.455045 0.184897 2.090729 13.557485 -0.172948 -1.170452 -15.088845 3.979411 -0.920911 17.328018 -0.293600 0.255300 6.620500 -1.946512 0.443853 2.666060 -61.830436 -3.875996 44.215271 4.777287 -33.045951 -2.021798 0.092381 0.727037 29.818665 11.190456 -7.354316 -1.625200 -7.125000 0.000000 0.000000 -11.125600 21.836300 6.306200 2.770051 1.622446 4.150715 69.179318 3.287982 22.056302 -73.865747 60.702007 -35.541973 0.112414 -3.553435 1.913329 -7.426321 9.706221 -1.774400 7.125000 0.000000 0.000000 13.494800 -16.805900 9.279700 
1.530748 19.087735 3.535061 -176.116187 7.672471 -178.026834 8.726959 2.241539 -1.863293 -20.857523 2.472244 -8.439661 2.460195 9.389980 27.734378 0.178800 3.606184 4.479192 0.456100 -4.332300 -12.013300 -13.307283 -4.432639 -3.095437 37.593788 -1.670702 -10.832709 -3.560614 -10.606172 31.701311 -3.790921 13.685789 4.923898 -0.156900 2.552600 -7.035600 3.316220 2.732330 -3.980281 0.472566 2.923787 -1.443735 0.054476 2.149194 13.517076 -0.196937 -1.178477 -14.921366 3.822921 -0.864178 17.432091 -0.344000 0.278600 6.629500 -2.009718 0.485960 2.678141 -61.570392 -3.891157 44.493735 4.881694 -33.023279 -2.022722 0.072684 0.724352 29.107597 10.821745 -7.037963 -1.509400 -7.125000 0.000000 0.000000 -11.405400 22.173400 6.381600 2.825522 1.582703 4.108359 68.590654 4.250707 22.046023 -77.249723 60.569359 -38.126893 0.160643 -3.560456 1.173419 -7.431171 9.398319 -1.737000 7.125000 0.000000 0.000000 13.504500 -17.098400 9.197800 
1.530350 19.087934 3.538444 -176.204724 7.950011 -178.191395 8.728797 2.229731 -1.856858 -21.014085 2.249633 -8.214916 2.514557 9.436553 27.880028 -0.063777 4.254957 4.245539 0.508300 -4.569900 -12.685900 -13.307046 -4.421932 -3.130756 37.476679 -1.733012 -10.609694 -3.544448 -10.565112 31.616996 -3.811506 13.893272 5.158501 -0.142700 2.434900 -6.709200 3.806327 2.819644 -3.827909 0.472534 2.996795 -1.434760 -0.110662 2.220518 13.472067 -0.182920 -1.191910 -14.774335 3.642572 -0.808061 17.550299 -0.420500 0.305700 6.660700 -2.063329 0.534104 2.684392 -61.322790 -3.921880 44.740244 4.966365 -32.981039 -2.019263 0.055183 0.716182 28.481724 10.427374 -6.852479 -1.417900 -7.125000 0.000000 0.000000 -11.699800 22.383200 6.495900 2.877431 1.544647 4.067473 68.058359 5.361246 22.024605 -80.387679 60.281780 -40.638808 0.207831 -3.577961 0.473972 -7.499106 9.177461 -1.727000 7.125000 0.000000 0.000000 13.465300 -17.291400 9.111000 
1.528360 19.088929 3.544116 -176.315712 8.220044 -178.390381 8.727350 2.218016 -1.846698 -21.182855 2.034505 -8.018758 2.578485 9.505484 28.093486 -0.296690 4.877612 4.066710 0.572600 -4.845800 -13.469400 -13.305767 -4.410272 -3.175204 37.327535 -1.842157 -10.375333 -3.528888 -10.521443 31.531661 -3.835337 14.139735 5.410627 -0.128900 2.314000 -6.374300 4.279262 2.897401 -3.610961 0.475406 3.068702 -1.424540 -0.217004 2.287891 13.412933 -0.259644 -1.206988 -14.625724 3.478090 -0.747963 17.659230 -0.457900 0.326900 6.691900 -2.119313 0.571767 2.690828 -61.104461 -3.952872 45.074372 5.085901 -32.982627 -2.020574 0.039356 0.710166 27.818321 10.027790 -6.680526 -1.331500 -7.125000 0.000000 0.000000 -11.998200 22.575200 6.614900 2.923125 1.500074 4.027461 67.493905 6.577857 22.002268 -83.334243 59.871138 -43.128473 0.244575 -3.595186 -0.278334 -7.573368 9.101269 -1.734200 7.125000 0.000000 0.000000 13.423900 -17.342200 9.065900 
1.527763 19.089626 3.551679 -176.424309 8.501146 -178.607774 8.726009 2.204857 -1.831760 -21.343082 1.750259 -7.834525 2.660263 9.606599 28.406771 -0.535672 5.515404 3.905956 0.631100 -5.083200 -14.146100 -13.304144 -4.396639 -3.226498 37.180269 -1.974580 -10.112014 -3.508529 -10.469806 31.426807 -3.857533 14.389973 5.718712 -0.104900 2.088000 -5.749100 4.754517 2.984071 -3.356925 0.477203 3.159158 -1.413779 -0.344127 2.364182 13.340339 -0.280689 -1.239448 -14.469927 3.286156 -0.706956 17.770688 -0.533700 0.344500 6.724900 -2.170107 0.613091 2.693662 -60.839114 -3.988250 45.503821 5.210650 -32.979235 -2.019225 0.028702 0.697413 27.088514 9.686979 -6.694845 -1.286300 -7.125000 0.000000 0.000000 -12.247400 22.583100 6.756300 2.972000 1.463008 3.993648 67.025059 7.863786 21.938381 -86.114012 59.369287 -45.605205 0.285256 -3.620026 -0.960354 -7.684578 9.067218 -1.758200 7.125000 0.000000 0.000000 13.349300 -17.341800 9.012700 
1.526967 19.093109 3.561032 -176.551784 8.802792 -178.813300 8.727330 2.189959 -1.808276 -21.535897 1.335800 -7.702399 2.765082 9.748568 28.834823 -0.811273 6.256826 3.791016 0.704800 -5.365900 -14.955200 -13.303077 -4.383323 -3.278709 37.020892 -2.104324 -9.864015 -3.487400 -10.415046 31.308376 -3.879248 14.643122 5.991574 -0.095600 1.994000 -5.489000 5.218464 3.087175 -3.096428 0.476802 3.276075 -1.403251 -0.461864 2.453049 13.257398 -0.320504 -1.281305 -14.303937 3.101814 -0.676863 17.883181 -0.596700 0.355900 6.757300 -2.229257 0.645147 2.695019 -60.529387 -3.984761 46.127559 5.429978 -33.055679 -2.032333 0.020819 0.685942 26.309762 9.419543 -6.731554 -1.254800 -7.125000 0.000000 0.000000 -12.443000 22.563800 6.875000 3.019253 1.430428 3.961029 66.582365 9.121239 21.856471 -88.900394 58.777242 -48.223043 0.321074 -3.642453 -1.658236 -7.769122 9.131385 -1.787800 7.125000 0.000000 0.000000 13.292500 -17.248800 9.000000 
1.525673 19.096989 3.573073 -176.658637 9.141848 -179.053485 8.731511 2.169705 -1.780948 -21.722956 0.777262 -7.556651 2.901149 9.934375 29.400371 -1.134370 7.122518 3.659009 0.814100 -5.757600 -16.082600 -13.304594 -4.365690 -3.336014 36.887964 -2.194861 -9.554712 -3.462422 -10.355334 31.176890 -3.895515 14.851027 6.273199 -0.086000 1.891100 -5.204700 5.729535 3.212954 -2.777128 0.473908 3.428440 -1.389248 -0.595556 2.566262 13.146553 -0.367989 -1.332338 -14.065723 2.916615 -0.657554 17.985758 -0.650600 0.361300 6.752900 -2.294570 0.672423 2.702616 -60.194891 -3.988857 46.884513 5.680201 -33.144536 -2.046570 0.014587 0.672940 25.444277 9.183167 -6.806878 -1.233100 -7.125000 0.000000 0.000000 -12.615300 22.505700 6.992000 3.064306 1.401569 3.937289 66.157793 10.349214 21.763567 -91.723858 58.102173 -51.022846 0.364022 -3.659138 -2.332647 -7.823226 9.205904 -1.813300 7.125000 0.000000 0.000000 13.250700 -17.152400 8.999000 
1.524380 19.101169 3.588099 -176.770667 9.482174 -179.285960 8.736261 2.148015 -1.746760 -21.909029 0.109439 -7.484847 3.064473 10.171591 30.119111 -1.447979 7.969291 3.588780 0.951600 -6.212300 -17.401600 -13.308207 -4.348087 -3.398696 36.754627 -2.308124 -9.272532 -3.435755 -10.294678 31.039521 -3.913398 15.085357 6.578172 -0.078500 1.807400 -4.973700 6.230774 3.324452 -2.459981 0.474147 3.571013 -1.370213 -0.705880 2.671710 13.076426 -0.403295 -1.385023 -13.859382 2.708855 -0.632682 18.089481 -0.728900 0.370800 6.751800 -2.356630 0.720702 2.709303 -59.865229 -4.020637 47.689903 5.959598 -33.271616 -2.067988 0.012248 0.662407 24.609687 9.063683 -6.907119 -1.231000 -7.125000 0.000000 0.000000 -12.702200 22.416400 7.069200 3.124214 1.359064 3.916556 65.704106 11.721321 21.648493 -94.394209 57.406264 -53.816370 0.408071 -3.656643 -2.981919 -7.778469 9.290147 -1.815400 7.125000 0.000000 0.000000 13.275200 -17.070700 9.041000 
1.521196 19.103955 3.605712 -176.880131 9.851757 -179.540146 8.743596 2.124773 -1.703681 -22.090098 -0.590565 -7.505762 3.262272 10.463027 31.014639 -1.747095 8.780575 3.540942 1.176900 -6.885500 -19.376700 -13.311287 -4.329490 -3.462504 36.616808 -2.417703 -8.970392 -3.407227 -10.229795 30.891488 -3.928810 15.307412 6.894490 -0.075000 1.767300 -4.863000 6.765522 3.459282 -2.080132 0.470555 3.749945 -1.355142 -0.841423 2.799407 12.925790 -0.443931 -1.462949 -13.548367 2.501521 -0.639807 18.184938 -0.796100 0.366000 6.716900 -2.416751 0.747908 2.720085 -59.542085 -3.996959 48.550916 6.254871 -33.400644 -2.090449 0.011719 0.650965 23.880118 8.975275 -7.039490 -1.237700 -7.125000 0.000000 0.000000 -12.764800 22.295500 7.142100 3.169078 1.334217 3.904128 65.278176 13.051598 21.487121 -97.061297 56.669371 -56.740122 0.459710 -3.640798 -3.584185 -7.654484 9.339639 -1.795100 7.125000 0.000000 0.000000 13.348600 -17.040200 9.103000 
1.516519 19.106841 3.625614 -176.992241 10.231801 -179.831010 8.748145 2.100285 -1.654317 -22.239543 -1.275784 -7.627982 3.500109 10.817506 32.121454 -2.001648 9.488909 3.618976 1.426300 -7.552000 -21.361300 -13.314267 -4.307827 -3.540751 36.467991 -2.574777 -8.625106 -3.372658 -10.153259 30.715278 -3.944415 15.551641 7.274152 -0.070000 1.706600 -4.695400 7.312807 3.580890 -1.638332 0.469658 3.928092 -1.335090 -0.950826 2.926880 12.800310 -0.509723 -1.538510 -13.279575 2.283032 -0.628176 18.309890 -0.864500 0.371500 6.717500 -2.467432 0.786216 2.728971 -59.294397 -4.006720 49.307010 6.511311 -33.514512 -2.110061 0.014382 0.642268 23.324008 8.967666 -7.198818 -1.260000 -7.125000 0.000000 0.000000 -12.767000 22.142900 7.189000 3.219514 1.299322 3.891790 64.807532 14.500864 21.240058 -99.579884 55.952028 -59.622769 0.502388 -3.604373 -4.194428 -7.398676 9.432873 -1.745300 7.125000 0.000000 0.000000 13.516100 -16.994600 9.237800 
